<svg xmlns="http://www.w3.org/2000/svg" xmlns:xlink="http://www.w3.org/1999/xlink" viewBox="0 0 1024 1024">
  <defs>
    <linearGradient id="a" x1="857.91242" y1="182.08758" x2="186.08758" y2="853.91242" gradientUnits="userSpaceOnUse">
      <stop offset="0" stop-color="#ec8a6c" />
      <stop offset="1" stop-color="#ed709d" />
    </linearGradient>
  </defs>
  <ellipse cx="522" cy="518" rx="482" ry="468" fill="url(#a)" />
  <path
    d="M486.48878,452.11174c6.46693-3.40573,11.32682-8.70183,16.79283-13.10939,13.03244-10.50872,26.41166-20.7545,38.28193-32.49095,12.15293-12.016,25.95918-21.847,38.88559-32.81465,4.62791-3.92667,9.3108-7.76572,15.3319-9.8999,8.69112-3.08064,22.94024-1.28961,31.44817,8.8632,6.10806,7.2888,7.50912,19.49433,3.51938,29.13691-3.13537,7.57783-9.40031,11.9053-15.16231,16.82291-11.72574,10.00752-23.60972,19.82944-35.42064,29.73725-.76388.64082-1.41169,1.42434-2.19576,2.03594-5.96066,4.64929-5.967,4.64112.652,8.38973,10.6213,6.01537,15.89836,17.13754,12.82749,28.86777-1.22794,4.6904.82606,6.43,4.30828,7.0222,15.80067,2.68711,22.93023,23.82754,16.93281,36.00412-1.35561,2.75221-1.43921,4.31532,2.43362,5.696,19.82305,7.067,24.882,29.28105,11.90087,44.92993-8.28435,9.98674-19.20765,17.21126-28.99234,25.619q-17.35145,14.90982-34.99849,29.47473c-10.82814,8.95864-20.77064,19.21613-32.782,26.46848-20.022,12.08925-41.48428,14.98993-63.78049,6.08151-13.46841-5.38128-23.32242-15.03545-32.16631-26.24739-9.8455-12.48175-19.92777-24.84432-30.761-36.46248-14.27308-15.30707-23.38759-32.351-22.53857-53.811A62.55961,62.55961,0,0,1,385.3092,531.574q15.10953-37.70891,30.79041-75.18827c6.3848-15.3275,13.06567-30.52861,19.06788-46.01871,1.24549-3.2143,2.894-6.30085,4.16774-9.55061,1.03548-2.64183,3.29919-4.3672,6.35047-3.73623,8.20953,1.69767,16.63526,2.13193,24.218,6.741,12.22249,7.4294,20.67236,24.578,17.43471,38.77848C486.65852,445.58156,485.21144,448.55486,486.48878,452.11174Z"
    fill="#fff" />
  <path
    d="M217.17256,753.999c.00295-10.82415-.03766-21.64854.01407-32.47244.05454-11.4105,6.94889-18.35133,18.21312-18.42321,3.99643-.02551,8.01076-.23,11.98472.07152,3.74921.28448,4.83908-1.01761,4.79415-4.7632-.18972-15.81764-.1425-31.6393-.04508-47.45871.06536-10.60959,7.24317-17.33971,17.85485-17.00921,9.50665.2962,15.8881,6.78687,15.99338,16.75884.16175,15.31878.05808,30.64025.07644,45.96062.00769,6.41671.01864,6.41994,6.37575,6.43294,3.497.00714,6.99429-.02429,10.49107.00592,10.94485.09452,17.87984,7.10577,17.97878,18.17321.03424,3.8298.21459,7.67193-.02065,11.48684-.24061,3.90138,1.22694,5.29085,5.1706,5.25076,15.48516-.15744,30.988.365,46.45528-.183,13.735-.48653,20.32319,12.84147,16.617,23.2409a16.18181,16.18181,0,0,1-14.71539,10.74616c-15.81855.14279-31.64191.25873-47.45686-.00458-4.9285-.082-6.55151,1.59994-6.14913,6.32225.30987,3.637.091,7.32209.05236,10.98524-.10749,10.18091-7.35992,17.65055-17.5307,17.69461q-34.22037.14811-68.44175.00263a17.77843,17.77843,0,0,1-17.69692-17.84784C217.11079,777.31292,217.16963,765.65576,217.17256,753.999Z"
    fill="#fff" />
  <path
    d="M806.83419,755.27335c.0047,11.1591.0537,22.3185-.00964,33.47723-.05913,10.43439-7.49863,18.03536-17.85467,18.07172q-33.97659.11919-67.95372-.0017c-10.58469-.04058-17.78291-7.36377-17.87542-17.87024-.03515-3.997-.19551-8.0059.04528-11.98863.24329-4.02458-1.49327-5.1458-5.309-5.10815-15.3214.15115-30.64542.09062-45.96817.0382-8.24242-.02819-14.52134-3.85641-16.77787-10.04386-2.93015-8.03482-.80531-15.44259,5.69683-21.08548,2.94547-2.55615,6.37167-2.74471,9.84114-2.76381,15.489-.08549,30.981-.1924,46.4669.03991,4.57506.06859,6.40328-1.29141,5.99675-5.96984-.33025-3.80119-.083-7.65589-.0327-11.48612.13553-10.31522,7.26192-17.36338,17.6738-17.476,3.99687-.0432,8.00645-.19978,11.98844.047,3.92762.24348,5.28255-1.27981,5.24722-5.19-.14-15.48812.37455-30.99278-.15854-46.4635-.45351-13.159,12.14753-20.54025,23.23382-16.58408a15.97128,15.97128,0,0,1,10.75726,15.23879c.10453,15.822.20619,31.64747-.04845,47.46584-.0703,4.36887,1.03469,6.01262,5.5339,5.56692a109.11551,109.11551,0,0,1,11.98362-.07793c10.06948.11784,17.437,7.51126,17.50172,17.68723C806.88569,732.28862,806.82943,743.78114,806.83419,755.27335Z"
    fill="#fff" />
  <path
    d="M303.40527,217.85545c17.9521.41253,18.1617,13.99925,17.38838,28.30544-.37963,4.51638,1.12554,6.15981,5.87107,6.07489,15.15438-.27112,30.33217.3186,45.47038-.24509,9.99226-.37208,17.90361,7.525,17.934,16.65675.03466,10.406-7.00621,17.68462-17.97244,17.79516q-22.73656.22918-45.47631-.0288c-4.32633-.05513-6.13173,1.33428-5.79812,5.74235.26325,3.47824.0915,6.99314.041,10.49072-.56156,18.46618-14.41318,18.99624-29.37386,18.16183-4.10841-.30886-5.59564,1.176-5.54518,5.38.18591,15.49016-.33319,30.99793.201,46.47189.43633,12.63921-12.01349,20.2922-22.98651,16.43914a16.01258,16.01258,0,0,1-10.92615-15.06691c-.0688-15.82529-.15771-31.65266.04689-47.47552.0562-4.34635-1.2779-6.0763-5.70487-5.75383a115.8528,115.8528,0,0,1-11.98809-.01012c-10.3338-.32116-16.65607-6.667-16.7012-17.084q-.1505-34.73215-.0084-69.46532c.04726-10.51659,5.97292-16.29471,16.5632-16.3832"
    fill="#fff" />
  <path
    d="M754.9439,217.84105c11.49452-.00348,22.9896-.07477,34.4834.01719,10.819.08656,16.67353,5.904,16.71191,16.76549q.12192,34.483-.02166,68.96673c-.0476,10.87687-6.13308,16.92955-16.98615,17.21479-4.162.10942-8.33578.20595-12.49095.01712-3.727-.1694-4.92735,1.38065-4.89622,5.016.13247,15.49144.071,30.98475.04485,46.47732-.0144,8.53387-3.83524,14.41123-10.74738,16.68159-8.39583,2.75767-15.42624.47942-20.75352-6.53784-2.31389-3.0479-2.27526-6.534-2.28558-10.0135-.04552-15.32586-.151-30.65382.063-45.97685.06157-4.40966-1.4129-6.04471-5.77555-5.66031-3.30641.29132-6.69527-.25437-9.9835.12553-11.22561,1.29681-20.44811-8.64687-19.24384-19.00764.4011-3.45156-.15084-7.00544.11448-10.48343.31591-4.14141-1.25638-5.554-5.42638-5.504-15.32378.184-30.67972-.50668-45.96744.25658-10.8754.543-21.45679-11.62648-16.82223-23.35454,2.29509-5.80788,7.90106-10.5584,14.29787-10.611,15.99124-.1315,31.98615-.22633,47.97482-.00006,4.60155.06511,6.38266-1.30933,5.97442-5.97051-.33293-3.802.30713-7.69958-.13022-11.48-1.0666-9.22086,8.64139-17.47213,16.88906-17.07652C731.60146,218.26128,743.28272,217.84451,754.9439,217.84105Z"
    fill="#fff" />
  <path
    d="M285.91307,564.18519c.0009,6.48045.26919,12.97456-.06453,19.43758-.45437,8.79968-7.73626,14.58854-17.52562,14.40169-8.692-.1658-15.996-6.77271-16.10332-15.00867q-.25013-19.19237.01232-38.39c.123-8.0607,7.70588-14.62621,16.43159-14.71661,9.44207-.09782,16.78987,5.83913,17.18668,14.338C286.15986,550.87962,285.91219,557.53809,285.91307,564.18519Z"
    fill="#fff" />
  <path
    d="M460.09366,771.88623c-6.15764-.006-12.31845.11978-18.47215-.03582-8.98964-.22725-15.61315-7.301-15.69189-16.51848-.08574-10.03623,5.82043-17.05284,15.18132-17.25165q18.963-.40284,37.94042-.00592c8.99184.17593,15.145,7.42357,15.07384,17.03826-.06844,9.25564-6.74467,16.44842-15.5586,16.76128q-.4989.01767-.99838.01776Q468.83095,771.89313,460.09366,771.88623Z"
    fill="#fff" />
  <path
    d="M563.9887,771.87537c-6.15822.00091-12.31876.10947-18.47395-.025-8.83047-.19277-15.56177-7.4492-15.63942-16.65327-.08378-9.93134,6.0672-16.98969,15.46517-17.1481,12.47887-.21047,24.96782-.23439,37.44535.0155,9.35742.18746,15.36485,7.21457,15.28845,17.17385-.07091,9.24648-6.64139,16.348-15.61229,16.6025C576.30891,772.01547,570.14679,771.87439,563.9887,771.87537Z"
    fill="#fff" />
  <path
    d="M771.16867,460.1351c-.00074,6.33064.09159,12.663-.02338,18.99154-.15456,8.51166-6.38277,14.67311-14.92353,14.95412-9.90168.32576-17.74715-5.41925-17.98721-14.02509-.3715-13.31448-.40854-26.65636.00342-39.96835.28009-9.049,7.8318-14.4886,18.25643-14.1085,8.37716.30548,14.51274,6.58062,14.6545,15.16464C771.25336,447.47242,771.16934,453.80443,771.16867,460.1351Z"
    fill="#fff" />
  <path
    d="M771.17666,563.91578c.00177,6.31471.07237,12.63039-.01538,18.94385-.122,8.78485-6.26677,14.898-15.08939,15.1561-9.906.28992-17.633-5.3678-17.87347-13.98649q-.56265-20.17035.0224-40.36694c.23445-8.22934,8.14412-13.982,17.693-13.75192,8.62735.20793,15.05669,6.25918,15.23347,14.56336C771.28522,550.95168,771.17489,557.4349,771.17666,563.91578Z"
    fill="#fff" />
  <path
    d="M285.88619,460.0684c0,6.4961.26264,13.00541-.06334,19.48512-.45618,9.0679-7.89733,14.8728-18.05554,14.52724-8.725-.29688-14.86448-6.55328-14.92491-15.461q-.12714-18.74166.01032-37.48466A14.83511,14.83511,0,0,1,267.49728,425.98c10.36511-.38178,17.566,5.09092,18.32754,14.10432.2798,3.31191.18368,6.65738.21474,9.98793.03107,3.33174.00683,6.664.00683,9.996Z"
    fill="#fff" />
  <path
    d="M460.06135,285.259c-6.3198.00384-12.64049.07022-18.95923-.01228-8.6967-.11353-15.108-7.01737-15.10895-16.138-.001-9.67725,5.8571-16.16436,14.998-16.25239q18.95763-.18258,37.91825-.003c9.14728.08186,15.16195,6.62721,15.17025,16.18122.00829,9.52806-5.98913,16.04859-15.05932,16.20025C472.70233,285.34041,466.38112,285.25511,460.06135,285.259Z"
    fill="#fff" />
  <path
    d="M564.01728,285.24419c-6.48065,0-12.96326.10128-19.44145-.02552-8.20782-.16063-14.65605-7.39257-14.656-16.2256.00007-9.294,5.95038-16.01916,14.67384-16.12231,12.95961-.15324,25.9226-.08407,38.88373-.02065a13.55142,13.55142,0,0,1,13.554,9.88511c1.844,5.7867,2.321,11.90563-2.91423,17.1237-3.8016,3.78909-7.68779,5.86362-13.15573,5.4997-5.62494-.37441-11.29422-.08312-16.94413-.08312Z"
    fill="#fff" />
  <path
    d="M657.94676,395.84979c-.225,8.73917-5.74675,21.43907-16.80125,31.65745-3.69714,3.41745-7.03821,3.68094-9.50655.80134-3.00949-3.51093-1.52659-6.4272,1.41973-9.02305a40.27766,40.27766,0,0,0-49.29448-63.45624c-1.24729.82392-2.34165,1.90453-3.64392,2.615-2.8637,1.5625-5.79868,1.97306-8.02656-.99817-2.30721-3.07691-1.5185-6.00651,1.25556-8.33942a49.73408,49.73408,0,0,1,23.65993-10.95491C628.83933,332.48307,658.25284,357.32537,657.94676,395.84979Z"
    fill="#fff" />
</svg>